<svg width="357" height="339" viewBox="0 0 357 339" fill="none" xmlns="http://www.w3.org/2000/svg">
<path opacity="0.5" d="M356.914 2.28689L269.567 311.717C269.123 313.121 267.346 313.543 266.31 312.56L207.832 257.079L251.653 102.012C252.097 100.608 250.765 99.3437 249.285 99.7651L85.8424 141.341L27.6605 86.1406C26.6242 85.1574 27.0683 83.4719 28.5488 83.0505L354.545 0.0395549C356.025 -0.241362 357.358 1.02276 356.914 2.28689Z" fill="#00B37E"/>
<path opacity="0.5" d="M207.828 257.075L185.326 337.137C184.881 338.541 183.105 338.963 182.069 337.98L0.56479 165.918C-0.471529 164.935 -0.0273946 163.249 1.45306 162.828L85.839 141.338L207.828 257.075Z" fill="#00B37E"/>
<path d="M251.646 102.01L207.824 257.076L85.8347 141.338L249.277 99.7625C250.757 99.3411 252.09 100.605 251.646 102.01Z" fill="#00B37E"/>
</svg>
